<?xml version="1.0" encoding="UTF-8" standalone="no"?> <svg xmlns="http://www.w3.org/2000/svg" viewBox="0 0 64 64"><g id="_10-Forklift" data-name="10-Forklift"><path id="path12617-2" d="M49.00011,36.00015h10a2,2,0,0,1,2,2v10a2,2,0,0,1-2,2h-10a2,2,0,0,1-2-2v-10A2,2,0,0,1,49.00011,36.00015Z" fill="#fdae68"/><path d="M59.00012,36.00012h-3a2,2,0,0,1,2,2V48.00018a2,2,0,0,1-2,2h3a2,2,0,0,0,2-2V38.00012A2,2,0,0,0,59.00012,36.00012Z" fill="#fda14f"/><path id="path12621-9" d="M49.00011,22.00011h10a2,2,0,0,1,2,2v10a2,2,0,0,1-2,2h-10a2,2,0,0,1-2-2v-10A2,2,0,0,1,49.00011,22.00011Z" fill="#fdbb81"/><path d="M59.00012,22.00012h-3a2,2,0,0,1,2,2v10a2,2,0,0,1-2,2h3a2,2,0,0,0,2-2v-10A2,2,0,0,0,59.00012,22.00012Z" fill="#fdae68"/><path id="path12627-3" d="M49.00011,8.00012h10a2,2,0,0,1,2,2v10a2,2,0,0,1-2,2h-10a2,2,0,0,1-2-2v-10A2,2,0,0,1,49.00011,8.00012Z" fill="#fdca99"/><path d="M59.00012,8.00012h-3a2,2,0,0,1,2,2V20.00018a2,2,0,0,1-2,2h3a2,2,0,0,0,2-2V10.00012A2,2,0,0,0,59.00012,8.00012Z" fill="#fdbb81"/><path id="path8252-1" d="M29.00014,34.002l-3,3.00005-.002,4.8672a9.96109,9.96109,0,0,1,6.00976-2.8125l-.84178-5.05463Z" fill="#565d69"/><path id="path8214-1" d="M35.00015,12h4V50.00973h-4Z" fill="#565d69"/><path id="path8216-3" d="M10.00012,30.00147a2,2,0,1,1,4,0v6h4a2.07332,2.07332,0,0,1,2,2v2l-10,.00011Z" fill="#565d69"/><path id="path8224-9" d="M3.00014,17.00012v3.9981l26,.002c-.5825-3.57434-2.24947-4.00006-4-4.00006Z" fill="#fc6067"/><path id="path8230-1" d="M23.838,44.98878l-3.83787.0113v-4.9995l-15,.001a1.99548,1.99548,0,0,0-2,1.9998v6.00021a2.00444,2.00444,0,0,0,2,2.00591l30-.00761V39.00126h-2A10.0023,10.0023,0,0,0,23.838,44.98809Z" fill="#fc6067"/><path d="M32,39.05682V50l-.00012.00073,3.0003-.00079V39.00128H33.00012C32.662,39.00128,32.32953,39.02405,32,39.05682Z" fill="#fb4b5b"/><path id="path8232-6" d="M39.00014,50.00016a6,6,0,1,1-6-6.00009A6,6,0,0,1,39.00014,50.00016Z" fill="#565d69"/><path id="path8234-7" d="M17.00014,50.00005a6,6,0,1,1-6-6A6,6,0,0,1,17.00014,50.00005Z" fill="#565d69"/><path id="path8236-3" d="M35.00015,50.00005a2,2,0,1,1-2-2A2.00008,2.00008,0,0,1,35.00015,50.00005Z" fill="#e7eaef"/><path id="path8238-5" d="M13.00012,50.00005a2,2,0,1,1-2-2A2.00008,2.00008,0,0,1,13.00012,50.00005Z" fill="#e7eaef"/><path id="path8246-5" d="M52.00012,36.00006h4v5l-2-1-2,1Z" fill="#fdca99"/><path id="path8250-5" d="M52.00012,22.00008h4v5l-2-1-2,1Z" fill="#fdd5a6"/><path id="path8256-1" d="M52.00012,8.00009h4v5l-2-1-2,1Z" fill="#fedcba"/><path d="M25.00012,17.00012h-.79785A6.20965,6.20965,0,0,1,25.98822,20.842c.00879.05493.01709.10437.02582.158l2.98608.00024C28.4176,17.42584,26.75067,17.00012,25.00012,17.00012Z" fill="#fb4b5b"/><path d="M33,47a3,3,0,1,0,3,3A3.00328,3.00328,0,0,0,33,47Zm0,4a1,1,0,1,1,1-1A1.0013,1.0013,0,0,1,33,51ZM11,47a3,3,0,1,0,3,3A3.00328,3.00328,0,0,0,11,47Zm0,4a1,1,0,1,1,1-1A1.0013,1.0013,0,0,1,11,51ZM62,10a3.00328,3.00328,0,0,0-3-3H49a3.00328,3.00328,0,0,0-3,3V20a2.97711,2.97711,0,0,0,.78027,2A2.97711,2.97711,0,0,0,46,24V34a2.97711,2.97711,0,0,0,.78027,2A2.97711,2.97711,0,0,0,46,38V48a2.96485,2.96485,0,0,0,.18433,1H44V30a1,1,0,0,0-2,0v3H40V12a1,1,0,0,0-1-1H35a1,1,0,0,0-1,1V38H33c-.05109,0-.10022.00983-.15118.01056L29.98633,20.83545l-.00055-.00153C29.28589,16.54956,26.95374,16,25,16H3a1,1,0,0,0-1,1v3.998a1.00005,1.00005,0,0,0,1,1l1,.00006V39.18427A2.99507,2.99507,0,0,0,2,42v6a3.01139,3.01139,0,0,0,2.05493,2.8371A6.99274,6.99274,0,0,0,17.92017,51h8.15966A6.9957,6.9957,0,0,0,40,50V45h2v5a1,1,0,0,0,1,1H59a3.00328,3.00328,0,0,0,3-3V38a2.97711,2.97711,0,0,0-.78027-2A2.97711,2.97711,0,0,0,62,34V24a2.97711,2.97711,0,0,0-.78027-2A2.97711,2.97711,0,0,0,62,20ZM27,37.4165,29.41406,35.002h.90583l.53894,3.2334A10.96819,10.96819,0,0,0,26.999,39.7984ZM4,18H25a2.38146,2.38146,0,0,1,2.748,2L4,19.99805Zm24.15289,3.99994,1.83368,11.002H28.58594l-1.085,1.0849L25.91406,32.5l.793-.793A.99989.99989,0,0,0,25.293,30.293l-3,3A.99989.99989,0,1,0,23.707,34.707l.793-.793,1.58673,1.58673L25,36.5874l-.00183,4.86884a10.94061,10.94061,0,0,0-1.79212,2.53546L21,43.99756v-5.9961a3.07851,3.07851,0,0,0-3-3H15v-5a3,3,0,0,0-6,0V39H6V21.99829ZM14,37.00146h4a1.08382,1.08382,0,0,1,1,1V39H11V30.00146a1,1,0,0,1,2,0v6A1,1,0,0,0,14,37.00146ZM4,42a.98961.98961,0,0,1,1-1H19v4a1.00026,1.00026,0,0,0,1.00244,1l3.83985-.00977a.99956.99956,0,0,0,.91406-.60009A8.98876,8.98876,0,0,1,33,40h1v3.07983A6.93295,6.93295,0,0,0,26.07983,49H17.92017a6.99364,6.99364,0,0,0-13.75885-.48212A.98461.98461,0,0,1,4,48Zm7,13a5,5,0,1,1,5-5A5.00588,5.00588,0,0,1,11,55Zm22,0a5,5,0,1,1,5-5A5.00588,5.00588,0,0,1,33,55Zm3-11.315V13h2V45.11035A7.02665,7.02665,0,0,0,36,43.685ZM40,43V35h2v8ZM53,9h2v2.38184l-.55273-.27637a1.00109,1.00109,0,0,0-.89454,0L53,11.38184Zm-5,1a1.0013,1.0013,0,0,1,1-1h2v4a1.00009,1.00009,0,0,0,1.44727.89453L54,13.11816l1.55273.77637A1.00009,1.00009,0,0,0,57,13V9h2a1.0013,1.0013,0,0,1,1,1V20a1.0013,1.0013,0,0,1-1,1H49a1.0013,1.0013,0,0,1-1-1ZM60,24V34a1.0013,1.0013,0,0,1-1,1H49a1.0013,1.0013,0,0,1-1-1V24a1.0013,1.0013,0,0,1,1-1h2v4a1.00009,1.00009,0,0,0,1.44727.89453L54,27.11816l1.55273.77637A1.00009,1.00009,0,0,0,57,27V23h2A1.0013,1.0013,0,0,1,60,24ZM53,37h2v2.38184l-.55273-.27637a1.00109,1.00109,0,0,0-.89454,0L53,39.38184Zm0-14h2v2.38184l-.55273-.27637a1.00109,1.00109,0,0,0-.89454,0L53,25.38184Zm7,25a1.0013,1.0013,0,0,1-1,1H49a1.0013,1.0013,0,0,1-1-1V38a1.0013,1.0013,0,0,1,1-1h2v4a1.00009,1.00009,0,0,0,1.44727.89453L54,41.11816l1.55273.77637A1.00009,1.00009,0,0,0,57,41V37h2a1.0013,1.0013,0,0,1,1,1Z"/></g></svg>